<svg width="38" height="22" viewBox="0 0 38 22" fill="none" xmlns="http://www.w3.org/2000/svg" xmlns:xlink="http://www.w3.org/1999/xlink">
<path d="M35.253,-0.708L33.088,-0.708C31.892,-0.708 30.923,0.186 30.923,1.289L30.923,18.602C30.923,19.705 31.892,20.6 33.088,20.6L35.253,20.6C36.449,20.6 37.419,19.705 37.419,18.602L37.419,1.289C37.419,0.186 36.449,-0.708 35.253,-0.708ZM22.983,3.953L25.148,3.953C26.344,3.953 27.314,4.847 27.314,5.95L27.314,18.602C27.314,19.705 26.344,20.6 25.148,20.6L22.983,20.6C21.787,20.6 20.818,19.705 20.818,18.602L20.818,5.95C20.818,4.847 21.787,3.953 22.983,3.953ZM15.044,8.614L12.878,8.614C11.682,8.614 10.713,9.508 10.713,10.611L10.713,18.602C10.713,19.705 11.682,20.6 12.878,20.6L15.044,20.6C16.239,20.6 17.209,19.705 17.209,18.602L17.209,10.611C17.209,9.508 16.239,8.614 15.044,8.614ZM4.939,12.609L2.773,12.609C1.577,12.609 0.608,13.503 0.608,14.607L0.608,18.602C0.608,19.705 1.577,20.6 2.773,20.6L4.939,20.6C6.135,20.6 7.104,19.705 7.104,18.602L7.104,14.607C7.104,13.503 6.135,12.609 4.939,12.609Z" clip-rule="evenodd" fill-rule="evenodd" fill="#FFFFFF"/>
</svg>
