<svg width="38" height="22" viewBox="0 0 38 22" fill="none" xmlns="http://www.w3.org/2000/svg" xmlns:xlink="http://www.w3.org/1999/xlink">
<path d="M35.284,-0.708L33.057,-0.708C31.828,-0.708 30.831,0.186 30.831,1.289L30.831,18.602C30.831,19.705 31.828,20.6 33.057,20.6L35.284,20.6C36.513,20.6 37.51,19.705 37.51,18.602L37.51,1.289C37.51,0.186 36.513,-0.708 35.284,-0.708ZM22.667,3.953L24.894,3.953C26.123,3.953 27.12,4.847 27.12,5.95L27.12,18.602C27.12,19.705 26.123,20.6 24.894,20.6L22.667,20.6C21.438,20.6 20.441,19.705 20.441,18.602L20.441,5.95C20.441,4.847 21.438,3.953 22.667,3.953ZM14.504,8.614L12.277,8.614C11.048,8.614 10.051,9.508 10.051,10.611L10.051,18.602C10.051,19.705 11.048,20.6 12.277,20.6L14.504,20.6C15.733,20.6 16.73,19.705 16.73,18.602L16.73,10.611C16.73,9.508 15.733,8.614 14.504,8.614ZM4.114,12.609L1.887,12.609C0.658,12.609 -0.339,13.503 -0.339,14.607L-0.339,18.602C-0.339,19.705 0.658,20.6 1.887,20.6L4.114,20.6C5.343,20.6 6.34,19.705 6.34,18.602L6.34,14.607C6.34,13.503 5.343,12.609 4.114,12.609Z" clip-rule="evenodd" fill-rule="evenodd" fill="#FFFFFF"/>
</svg>
