<svg width="58" height="56" viewBox="0 0 58 56" fill="none" xmlns="http://www.w3.org/2000/svg" xmlns:xlink="http://www.w3.org/1999/xlink">
<path d="M56.5,34.667C56.5,33.286 55.381,32.167 54,32.167C52.619,32.167 51.5,33.286 51.5,34.667L56.5,34.667ZM2,46.222L-0.5,46.222L2,46.222ZM4.5,34.667C4.5,33.286 3.381,32.167 2,32.167C0.619,32.167 -0.5,33.286 -0.5,34.667L4.5,34.667ZM51.5,34.667L51.5,46.222L56.5,46.222L56.5,34.667L51.5,34.667ZM51.5,46.222C51.5,47.092 51.155,47.925 50.54,48.54L54.075,52.076C55.628,50.523 56.5,48.418 56.5,46.222L51.5,46.222ZM50.54,48.54C49.925,49.155 49.092,49.5 48.222,49.5L48.222,54.5C50.418,54.5 52.523,53.628 54.075,52.076L50.54,48.54ZM48.222,49.5L7.778,49.5L7.778,54.5L48.222,54.5L48.222,49.5ZM7.778,49.5C6.908,49.5 6.075,49.155 5.46,48.54L1.925,52.076C3.477,53.628 5.582,54.5 7.778,54.5L7.778,49.5ZM5.46,48.54C4.845,47.925 4.5,47.092 4.5,46.222L-0.5,46.222C-0.5,48.418 0.372,50.523 1.925,52.076L5.46,48.54ZM4.5,46.222L4.5,34.667L-0.5,34.667L-0.5,46.222L4.5,46.222Z" fill="#007EF2"/>
<path d="M15.323,18.454C14.347,17.478 12.764,17.478 11.788,18.454C10.811,19.431 10.811,21.014 11.788,21.99L15.323,18.454ZM28,34.667L26.232,36.434C27.209,37.411 28.791,37.411 29.768,36.434L28,34.667ZM44.212,21.99C45.189,21.014 45.189,19.431 44.212,18.454C43.236,17.478 41.653,17.478 40.677,18.454L44.212,21.99ZM11.788,21.99L26.232,36.434L29.768,32.899L15.323,18.454L11.788,21.99ZM29.768,36.434L44.212,21.99L40.677,18.454L26.232,32.899L29.768,36.434Z" fill="#007EF2"/>
<line x1="25.5" y1="0" x2="25.5" y2="34.667" stroke="#007EF2" stroke-width="2.5" stroke-miterlimit="3.999327" stroke-linecap="round" stroke-linejoin="round"/>
</svg>
