<svg width="34" height="40" viewBox="0 0 34 40" fill="none" xmlns="http://www.w3.org/2000/svg" xmlns:xlink="http://www.w3.org/1999/xlink">
<path d="M31.819,27.331C31.677,27.159 31.537,26.988 31.399,26.822C29.508,24.535 28.365,23.155 28.365,16.681C28.365,13.33 27.563,10.58 25.982,8.517C24.817,6.993 23.242,5.837 21.166,4.983C21.139,4.968 21.115,4.949 21.095,4.926C20.348,2.425 18.305,0.75 16,0.75C13.695,0.75 11.652,2.425 10.906,4.923C10.886,4.946 10.862,4.964 10.836,4.979C5.991,6.974 3.636,10.8 3.636,16.679C3.636,23.155 2.494,24.535 0.602,26.819C0.464,26.985 0.324,27.153 0.181,27.329C-0.187,27.773 -0.42,28.314 -0.491,28.887C-0.562,29.46 -0.467,30.041 -0.218,30.562C0.312,31.679 1.442,32.372 2.732,32.372L29.277,32.372C30.561,32.372 31.684,31.68 32.215,30.568C32.466,30.047 32.561,29.465 32.491,28.892C32.421,28.318 32.188,27.776 31.819,27.331ZM16,39.25C17.242,39.249 18.46,38.912 19.526,38.274C20.592,37.637 21.465,36.723 22.053,35.629C22.081,35.577 22.095,35.518 22.093,35.459C22.091,35.4 22.074,35.342 22.044,35.291C22.013,35.24 21.97,35.198 21.918,35.169C21.867,35.14 21.808,35.125 21.749,35.125L10.253,35.125C10.193,35.125 10.135,35.14 10.083,35.169C10.031,35.198 9.988,35.24 9.957,35.291C9.926,35.342 9.909,35.4 9.908,35.459C9.906,35.518 9.92,35.577 9.947,35.629C10.536,36.723 11.409,37.637 12.475,38.274C13.54,38.912 14.758,39.249 16,39.25Z" fill="#FFFFFF"/>
</svg>
