<svg width="34" height="30" viewBox="0 0 34 30" fill="none" xmlns="http://www.w3.org/2000/svg" xmlns:xlink="http://www.w3.org/1999/xlink">
<path d="M1,0.667L1,9L4.333,9L4.333,2.333L11,2.333L11,-1L2.667,-1C2.225,-1 1.801,-0.824 1.488,-0.512C1.176,-0.199 1,0.225 1,0.667ZM31,9L31,0.667C31,0.225 30.824,-0.199 30.512,-0.512C30.199,-0.824 29.775,-1 29.333,-1L21,-1L21,2.333L27.667,2.333L27.667,9L31,9ZM27.667,25.667L21,25.667L21,29L29.333,29C29.775,29 30.199,28.824 30.512,28.512C30.824,28.199 31,27.775 31,27.333L31,19L27.667,19L27.667,25.667ZM11,29L11,25.667L4.333,25.667L4.333,19L1,19L1,27.333C1,27.775 1.176,28.199 1.488,28.512C1.801,28.824 2.225,29 2.667,29L11,29ZM-0.667,12.333L32.667,12.333L32.667,15.667L-0.667,15.667L-0.667,12.333Z" fill="#FFFFFF"/>
</svg>
