<svg width="34" height="24" viewBox="0 0 34 24" fill="none" xmlns="http://www.w3.org/2000/svg" xmlns:xlink="http://www.w3.org/1999/xlink">
<path d="M16.847,5.184C21.664,5.184 26.297,6.89 29.789,9.95C30.052,10.186 30.472,10.183 30.731,9.943L33.244,7.605C33.375,7.484 33.448,7.319 33.447,7.147C33.446,6.976 33.371,6.812 33.238,6.691C24.075,-1.403 9.618,-1.403 0.455,6.691C0.322,6.812 0.247,6.976 0.245,7.147C0.244,7.319 0.317,7.483 0.448,7.605L2.962,9.943C3.221,10.183 3.641,10.186 3.904,9.95C7.396,6.89 12.029,5.184 16.847,5.184ZM16.847,12.79C19.494,12.79 22.046,13.697 24.008,15.334C24.274,15.567 24.692,15.562 24.95,15.323L27.46,12.985C27.593,12.862 27.666,12.696 27.664,12.523C27.662,12.35 27.585,12.185 27.45,12.065C21.476,6.943 12.223,6.943 6.249,12.065C6.114,12.185 6.037,12.35 6.035,12.523C6.033,12.696 6.107,12.863 6.24,12.985L8.749,15.323C9.008,15.562 9.426,15.567 9.691,15.334C11.652,13.698 14.202,12.791 16.847,12.79ZM21.876,17.908C21.879,18.081 21.805,18.248 21.671,18.37L17.329,22.409C17.202,22.528 17.028,22.594 16.847,22.594C16.666,22.594 16.492,22.528 16.365,22.409L12.022,18.37C11.888,18.248 11.814,18.081 11.818,17.907C11.822,17.734 11.904,17.57 12.043,17.454C14.816,15.292 18.878,15.292 21.651,17.454C21.79,17.57 21.872,17.734 21.876,17.908Z" clip-rule="evenodd" fill-rule="evenodd" fill="#FFFFFF"/>
</svg>
