<svg width="36" height="24" viewBox="0 0 36 24" fill="none" xmlns="http://www.w3.org/2000/svg" xmlns:xlink="http://www.w3.org/1999/xlink">
<path d="M17.712,5.184C22.665,5.184 27.429,6.89 31.019,9.95C31.289,10.186 31.721,10.183 31.987,9.943L34.571,7.605C34.706,7.484 34.781,7.319 34.78,7.147C34.779,6.976 34.702,6.812 34.565,6.692C25.143,-1.403 10.279,-1.403 0.857,6.692C0.721,6.812 0.643,6.976 0.642,7.147C0.641,7.319 0.716,7.484 0.85,7.605L3.435,9.943C3.701,10.183 4.134,10.186 4.404,9.95C7.994,6.89 12.758,5.184 17.712,5.184ZM17.712,12.79C20.433,12.79 23.058,13.697 25.075,15.334C25.348,15.567 25.778,15.562 26.044,15.323L28.625,12.985C28.761,12.862 28.836,12.696 28.834,12.523C28.832,12.35 28.753,12.185 28.614,12.065C22.471,6.943 12.958,6.943 6.815,12.065C6.676,12.185 6.597,12.35 6.595,12.523C6.593,12.696 6.669,12.863 6.805,12.985L9.386,15.323C9.652,15.562 10.081,15.567 10.354,15.334C12.37,13.698 14.992,12.791 17.712,12.79ZM22.882,17.908C22.886,18.081 22.81,18.248 22.672,18.37L18.208,22.409C18.077,22.528 17.898,22.594 17.712,22.594C17.526,22.594 17.347,22.528 17.217,22.409L12.751,18.37C12.613,18.248 12.537,18.081 12.541,17.908C12.546,17.734 12.629,17.57 12.773,17.454C15.624,15.292 19.8,15.292 22.651,17.454C22.795,17.57 22.878,17.734 22.882,17.908Z" clip-rule="evenodd" fill-rule="evenodd" fill="#FFFFFF"/>
</svg>
